<?xml version="1.0" standalone="no"?>
<!DOCTYPE svg PUBLIC "-//W3C//DTD SVG 20010904//EN"
 "http://www.w3.org/TR/2001/REC-SVG-20010904/DTD/svg10.dtd">
<svg version="1.0" xmlns="http://www.w3.org/2000/svg"
 width="488.000000pt" height="316.000000pt" viewBox="0 0 488.000000 316.000000"
 preserveAspectRatio="xMidYMid meet">

<g transform="translate(0.000000,316.000000) scale(0.100000,-0.100000)"
fill="#000000" stroke="none">
<path d="M645 2766 c-52 -24 -105 -76 -105 -102 0 -8 19 -49 41 -90 40 -73 41
-78 36 -140 l-6 -64 67 -34 67 -33 34 35 c19 19 58 46 88 59 46 21 66 24 126
21 80 -4 126 -22 183 -72 l38 -33 65 37 66 38 -3 58 c-3 53 1 67 38 137 37 69
40 82 30 105 -20 50 -135 111 -180 97 -11 -3 -37 -36 -59 -73 -45 -77 -63 -95
-114 -117 -49 -20 -113 -19 -162 4 -46 21 -71 47 -108 113 -26 45 -60 78 -82
78 -5 0 -33 -11 -60 -24z"/>
<path d="M1323 2278 c-71 -39 -71 -39 -62 -71 12 -42 11 -113 -1 -157 -24 -86
-118 -182 -192 -197 l-28 -5 0 -89 c0 -70 3 -89 14 -89 25 0 78 -52 122 -122
42 -66 53 -73 99 -68 54 6 145 76 145 112 0 10 -18 53 -40 94 -59 112 -53 176
25 263 43 47 82 61 178 61 53 0 71 4 86 19 40 40 41 166 2 204 -17 18 -36 22
-99 25 -100 4 -115 7 -149 35 l-28 24 -72 -39z"/>
<path d="M518 2278 c-21 -16 -47 -22 -123 -27 -110 -7 -120 -14 -131 -87 -8
-55 1 -106 24 -135 16 -18 30 -22 104 -25 94 -3 127 -15 169 -61 71 -76 79
-161 24 -259 -43 -76 -45 -111 -7 -147 37 -35 118 -70 147 -63 15 4 37 28 61
69 50 84 69 104 121 123 l43 17 0 77 0 78 -43 10 c-137 35 -228 171 -213 319
l7 62 -70 36 c-39 19 -74 35 -78 34 -5 0 -20 -9 -35 -21z"/>
<path d="M4490 1961 c0 -6 4 -13 10 -16 6 -3 7 1 4 9 -7 18 -14 21 -14 7z"/>
<path d="M4558 1963 c-2 -5 -1 -24 3 -43 l6 -35 2 43 c1 39 -3 52 -11 35z"/>
<path d="M1730 1946 c-77 -22 -99 -34 -150 -82 -57 -53 -80 -110 -80 -193 1
-133 70 -201 270 -266 169 -55 219 -97 206 -169 -14 -74 -79 -115 -183 -116
-53 0 -73 6 -140 40 -43 23 -87 39 -98 38 -11 -2 -35 -25 -53 -53 l-33 -49 23
-18 c82 -66 212 -103 333 -95 198 12 318 116 332 285 4 60 2 73 -24 122 -37
72 -91 108 -235 155 -136 45 -185 71 -204 107 -19 36 -18 57 6 95 45 75 167
90 285 34 37 -17 73 -31 81 -31 15 0 74 75 74 94 0 7 -25 28 -55 48 -92 61
-248 84 -355 54z"/>
<path d="M3985 1946 c-111 -30 -184 -78 -245 -163 -64 -90 -85 -166 -84 -308
1 -134 20 -210 75 -297 122 -191 388 -252 623 -145 54 25 126 82 126 99 0 20
-62 88 -80 88 -10 0 -50 -16 -88 -35 -113 -58 -234 -65 -320 -21 -71 37 -136
149 -143 246 l-4 45 320 3 c240 2 321 5 327 15 13 20 9 129 -7 192 -33 127
-115 225 -223 266 -71 27 -206 34 -277 15z m188 -137 c78 -21 143 -108 149
-199 l3 -35 -233 -3 c-189 -2 -233 0 -238 11 -7 20 33 122 63 158 56 66 161
95 256 68z"/>
<path d="M2842 1933 c-15 -13 -52 -115 -121 -333 -56 -173 -104 -330 -107
-347 -9 -45 -20 -41 -28 10 -9 60 -176 650 -188 665 -7 8 -41 12 -105 12 -72
0 -94 -3 -90 -12 2 -7 29 -92 60 -188 30 -96 96 -301 145 -455 l89 -280 74 -6
c41 -3 83 -2 94 2 17 5 40 70 129 345 129 405 118 374 124 349 10 -47 214
-681 221 -688 5 -5 47 -9 95 -10 l86 -2 30 90 c53 162 270 845 270 850 0 12
-178 4 -187 -7 -11 -14 -175 -578 -194 -668 l-13 -55 -13 50 c-8 28 -58 191
-111 364 -107 348 -97 331 -192 331 -31 0 -55 -6 -68 -17z"/>
<path d="M1490 816 c-19 -24 -8 -60 25 -75 39 -18 48 -33 30 -50 -11 -11 -20
-12 -39 -3 -28 12 -41 5 -25 -15 15 -18 64 -17 83 3 29 28 20 62 -21 82 -46
21 -50 47 -8 48 47 2 51 4 35 14 -22 14 -66 12 -80 -4z"/>
<path d="M1862 819 c2 -6 8 -10 13 -10 5 0 11 4 13 10 2 6 -4 11 -13 11 -9 0
-15 -5 -13 -11z"/>
<path d="M2467 823 c-4 -3 -7 -14 -7 -24 0 -9 -6 -20 -12 -23 -10 -5 -10 -7 0
-12 7 -3 12 -25 12 -55 0 -27 5 -49 10 -49 6 0 10 23 10 50 0 38 4 50 15 50 8
0 15 5 15 10 0 6 -7 10 -15 10 -19 0 -19 9 2 32 15 17 15 18 -4 18 -11 0 -23
-3 -26 -7z"/>
<path d="M2580 823 c0 -27 54 -163 65 -163 7 0 20 27 30 61 9 34 20 57 25 53
4 -5 15 -33 25 -61 9 -29 22 -53 29 -53 6 0 23 38 37 85 22 72 24 85 11 83 -9
-2 -22 -27 -33 -63 -17 -63 -20 -62 -42 15 -7 25 -19 45 -26 45 -8 0 -22 -24
-32 -54 -11 -30 -21 -56 -23 -58 -3 -3 -12 23 -22 56 -10 37 -22 61 -30 61 -8
0 -14 -3 -14 -7z"/>
<path d="M3490 745 l0 -85 50 0 c28 0 50 5 50 10 0 6 -16 10 -35 10 -32 0 -35
2 -35 30 0 27 3 30 31 30 17 0 28 4 24 10 -3 6 -17 10 -31 10 -19 0 -24 5 -24
25 0 22 4 25 35 25 19 0 35 5 35 10 0 6 -22 10 -50 10 l-50 0 0 -85z"/>
<path d="M3880 814 c0 -17 22 -14 28 4 2 7 -3 12 -12 12 -9 0 -16 -7 -16 -16z"/>
<path d="M2065 805 c-5 -11 -13 -23 -19 -27 -8 -6 -7 -10 1 -16 6 -4 13 -28
15 -52 2 -38 7 -46 26 -48 12 -2 22 1 22 7 0 6 -7 11 -15 11 -11 0 -15 11 -15
40 0 29 4 40 15 40 8 0 15 5 15 10 0 6 -6 10 -14 10 -8 0 -16 10 -19 23 -3 21
-4 21 -12 2z"/>
<path d="M1616 758 c-9 -12 -16 -29 -16 -38 0 -30 30 -60 60 -60 52 0 80 69
42 103 -26 24 -68 21 -86 -5z m69 -38 c0 -31 -3 -35 -25 -35 -19 0 -26 6 -28
23 -5 36 5 54 30 50 19 -2 23 -9 23 -38z"/>
<path d="M1756 764 c-49 -48 17 -131 74 -94 15 10 13 11 -30 13 -22 2 -25 7
-25 37 0 32 3 35 33 38 18 2 30 8 27 13 -10 15 -62 10 -79 -7z"/>
<path d="M1860 720 c0 -47 3 -60 15 -60 12 0 15 13 15 60 0 47 -3 60 -15 60
-12 0 -15 -13 -15 -60z"/>
<path d="M1932 768 c-7 -7 -12 -29 -12 -50 0 -31 5 -41 24 -49 26 -12 80 -4
72 10 -3 5 -17 6 -32 3 -16 -3 -29 1 -35 9 -15 24 -10 29 31 29 32 0 40 4 40
18 0 10 -5 23 -12 30 -15 15 -61 15 -76 0z m68 -29 c0 -5 -13 -9 -30 -9 -33 0
-39 14 -13 29 18 10 43 -2 43 -20z"/>
<path d="M2130 774 c0 -3 10 -28 21 -55 18 -41 20 -54 11 -74 -9 -20 -9 -25 1
-25 11 0 33 44 74 148 3 6 0 12 -6 12 -7 0 -19 -16 -27 -35 -8 -19 -16 -35
-19 -35 -3 0 -11 16 -19 35 -8 19 -20 35 -25 35 -6 0 -11 -3 -11 -6z"/>
<path d="M2326 764 c-35 -34 -8 -104 40 -104 48 0 76 67 44 105 -16 20 -64 19
-84 -1z m70 -19 c11 -27 -5 -65 -26 -65 -27 0 -44 34 -30 60 13 23 48 27 56 5z"/>
<path d="M2836 764 c-35 -34 -8 -104 40 -104 49 0 77 65 44 104 -16 21 -64 20
-84 0z m69 -44 c0 -28 -4 -36 -22 -38 -14 -2 -26 4 -33 17 -15 29 4 63 33 59
18 -2 22 -10 22 -38z"/>
<path d="M2960 718 c0 -45 3 -58 15 -58 11 0 15 12 15 50 0 43 3 50 20 50 17
0 20 -7 20 -50 0 -38 4 -50 15 -50 11 0 15 12 15 45 0 33 5 47 16 52 21 8 34
-14 34 -59 0 -21 5 -38 10 -38 15 0 12 97 -2 107 -7 4 -46 8 -85 9 l-73 0 0
-58z"/>
<path d="M3172 768 c-7 -7 -12 -29 -12 -50 0 -31 5 -41 24 -49 27 -12 76 -5
76 11 0 6 -11 8 -25 4 -25 -6 -55 9 -55 27 0 5 18 9 40 9 32 0 40 4 40 18 0
10 -5 23 -12 30 -15 15 -61 15 -76 0z m68 -29 c0 -5 -13 -9 -30 -9 -33 0 -39
14 -13 29 18 10 43 -2 43 -20z"/>
<path d="M3290 718 c0 -32 4 -58 10 -58 6 0 10 17 10 38 0 46 12 65 36 60 15
-2 20 -14 22 -51 2 -26 8 -47 13 -47 6 0 9 24 7 58 l-3 57 -47 1 -48 1 0 -59z"/>
<path d="M3620 718 c0 -69 18 -78 22 -11 2 37 7 49 22 51 24 5 36 -14 36 -60
0 -21 5 -38 10 -38 15 0 12 96 -2 108 -7 6 -30 10 -50 9 l-38 -1 0 -58z"/>
<path d="M3761 767 c-6 -8 -9 -32 -7 -55 2 -22 0 -46 -5 -53 -19 -32 60 -56
89 -27 28 28 8 58 -39 58 -10 0 -19 5 -19 10 0 6 8 10 19 10 21 0 35 15 45 48
7 20 4 22 -32 22 -22 0 -45 -6 -51 -13z m57 -26 c-2 -9 -11 -17 -21 -19 -21
-4 -35 27 -17 38 19 12 42 0 38 -19z m9 -87 c5 -14 -22 -25 -42 -18 -8 4 -15
13 -15 21 0 17 51 14 57 -3z"/>
<path d="M3880 720 c0 -33 4 -60 10 -60 6 0 10 27 10 60 0 33 -4 60 -10 60 -6
0 -10 -27 -10 -60z"/>
<path d="M3940 718 c0 -70 18 -78 22 -10 3 43 5 47 28 47 23 0 25 -4 28 -47 2
-27 7 -48 13 -48 11 0 12 90 1 107 -4 7 -26 11 -50 10 l-42 -1 0 -58z"/>
<path d="M4086 764 c-9 -8 -16 -28 -16 -44 0 -47 38 -72 84 -54 26 10 18 25
-9 18 -25 -6 -55 9 -55 27 0 5 18 9 40 9 32 0 40 4 40 18 0 40 -54 57 -84 26z
m64 -20 c0 -8 -10 -14 -25 -14 -26 0 -35 25 -12 33 18 6 37 -3 37 -19z"/>
<path d="M4212 768 c-7 -7 -12 -29 -12 -50 0 -31 5 -41 24 -49 26 -12 80 -4
72 10 -3 5 -17 6 -32 3 -16 -3 -29 1 -35 9 -15 24 -10 29 31 29 32 0 40 4 40
18 0 10 -5 23 -12 30 -15 15 -61 15 -76 0z m68 -29 c0 -5 -13 -9 -30 -9 -33 0
-39 14 -13 29 18 10 43 -2 43 -20z"/>
<path d="M4330 718 c0 -32 4 -58 10 -58 6 0 10 14 10 31 0 38 16 69 35 69 8 0
15 4 15 9 0 5 -16 9 -35 8 l-35 -1 0 -58z"/>
<path d="M4421 766 c-15 -18 -5 -41 25 -54 33 -16 30 -32 -7 -32 -17 0 -28 -4
-24 -10 11 -18 64 -11 75 10 13 25 6 38 -26 50 -31 12 -31 30 1 30 14 0 25 5
25 10 0 15 -56 12 -69 -4z"/>
<path d="M1689 381 c-13 -77 -9 -101 20 -101 35 0 60 33 75 100 13 60 14 81 1
68 -3 -2 -10 -31 -16 -64 -13 -67 -24 -84 -50 -84 -31 0 -31 7 -4 128 3 12 1
22 -4 22 -5 0 -15 -31 -22 -69z"/>
<path d="M2355 440 c-3 -5 -1 -10 4 -10 6 0 11 5 11 10 0 6 -2 10 -4 10 -3 0
-8 -4 -11 -10z"/>
<path d="M2406 433 c-4 -13 -13 -23 -19 -23 -9 0 -9 -2 0 -8 9 -6 9 -18 1 -50
-11 -44 -6 -72 12 -72 7 0 9 8 5 20 -11 35 4 100 23 100 11 0 13 3 6 8 -7 4
-14 16 -16 27 -4 19 -5 19 -12 -2z"/>
<path d="M2725 430 c-3 -11 -12 -20 -18 -20 -9 0 -9 -2 0 -8 9 -5 9 -19 3 -47
-5 -22 -10 -47 -10 -55 0 -27 18 11 25 52 4 21 14 42 23 48 10 5 12 10 5 10
-20 0 -15 28 5 33 13 4 12 5 -5 6 -14 1 -24 -6 -28 -19z"/>
<path d="M2846 427 c-37 -55 -30 -147 11 -147 17 0 67 49 59 58 -4 3 -13 -4
-22 -16 -8 -12 -24 -22 -35 -22 -16 0 -19 7 -19 43 0 76 43 122 76 80 14 -17
15 -17 12 2 -5 31 -62 33 -82 2z"/>
<path d="M3060 393 c-6 -32 -14 -69 -17 -83 -4 -17 -2 -22 5 -15 13 13 42 155
31 155 -4 0 -13 -26 -19 -57z"/>
<path d="M3120 439 c0 -5 5 -7 10 -4 6 3 10 8 10 11 0 2 -4 4 -10 4 -5 0 -10
-5 -10 -11z"/>
<path d="M3173 430 c-3 -11 -8 -20 -12 -20 -3 0 -6 -12 -6 -27 0 -16 -4 -43
-7 -60 -4 -18 -4 -33 1 -33 5 0 12 20 15 45 4 25 14 51 22 59 10 11 11 16 1
20 -8 3 -6 9 7 20 18 15 18 16 2 16 -10 0 -20 -9 -23 -20z"/>
<path d="M3515 440 c-3 -5 -1 -10 4 -10 6 0 11 5 11 10 0 6 -2 10 -4 10 -3 0
-8 -4 -11 -10z"/>
<path d="M3762 386 c-7 -36 -15 -72 -18 -81 -5 -12 2 -15 35 -15 33 0 44 5 58
26 13 20 14 30 5 44 -9 14 -8 21 4 31 8 7 14 22 12 33 -2 17 -11 22 -44 24
l-40 3 -12 -65z m73 44 c12 -20 -6 -50 -31 -50 -24 0 -30 13 -18 44 7 18 39
22 49 6z m-21 -66 c35 -14 11 -64 -31 -64 -26 0 -28 7 -13 44 10 27 17 30 44
20z"/>
<path d="M4061 388 c-7 -35 -14 -71 -17 -80 -3 -10 -1 -18 5 -18 6 0 11 8 11
19 0 10 6 24 14 30 11 9 16 5 25 -20 6 -18 14 -29 17 -26 4 3 1 20 -5 38 -10
29 -9 35 11 56 12 13 17 23 11 23 -6 0 -18 -11 -27 -25 -9 -14 -21 -25 -27
-25 -10 0 -8 20 7 73 3 9 1 17 -4 17 -5 0 -15 -28 -21 -62z"/>
<path d="M4272 385 c-7 -35 -15 -71 -18 -80 -3 -8 -2 -15 3 -15 6 0 15 26 22
58 7 31 15 67 18 80 3 12 1 22 -4 22 -5 0 -15 -29 -21 -65z"/>
<path d="M1814 383 c-3 -15 -10 -43 -14 -60 -5 -19 -5 -33 0 -33 5 0 12 17 16
38 4 20 11 45 15 54 6 10 5 19 -1 23 -5 3 -12 -7 -16 -22z"/>
<path d="M1863 399 c10 -6 16 -18 13 -27 -14 -50 -17 -86 -8 -77 6 6 14 34 18
63 6 50 6 52 -17 52 -22 -1 -22 -2 -6 -11z"/>
<path d="M1921 366 c-6 -25 -11 -53 -11 -63 1 -32 17 7 25 60 9 59 1 61 -14 3z"/>
<path d="M1971 353 c-1 -45 3 -63 12 -63 14 0 72 109 62 118 -6 6 -5 8 -32
-48 -21 -44 -22 -44 -23 -15 -1 17 -5 39 -10 50 -6 14 -9 2 -9 -42z"/>
<path d="M2075 387 c-24 -37 -29 -81 -11 -96 18 -15 52 -6 61 16 5 14 3 14
-15 -2 -23 -21 -44 -10 -38 21 2 13 13 20 36 22 28 3 32 7 32 33 0 24 -4 29
-25 29 -15 0 -31 -9 -40 -23z m53 -10 c3 -12 -3 -17 -22 -17 -28 0 -29 1 -20
25 8 20 38 15 42 -8z"/>
<path d="M2176 394 c-2 -6 -7 -33 -10 -60 l-6 -49 15 45 c8 25 24 52 35 61 19
17 19 17 -5 15 -14 0 -27 -6 -29 -12z"/>
<path d="M2252 398 c-19 -19 -14 -44 13 -56 29 -13 31 -24 9 -43 -14 -11 -18
-10 -30 6 -8 10 -17 15 -21 12 -4 -4 1 -15 10 -24 13 -14 21 -14 42 -5 34 16
34 55 0 70 -16 7 -23 17 -19 27 7 18 26 19 42 3 9 -9 12 -8 12 5 0 20 -40 23
-58 5z"/>
<path d="M2346 399 c-13 -38 -23 -109 -15 -109 9 0 33 109 25 117 -3 3 -8 0
-10 -8z"/>
<path d="M2453 343 c1 -62 -2 -75 -18 -87 -20 -15 -10 -22 11 -8 22 14 90 162
75 162 -5 0 -17 -21 -27 -47 l-18 -48 -13 50 -12 50 2 -72z"/>
<path d="M2610 395 c-8 -9 -14 -38 -14 -63 -1 -40 2 -47 20 -50 31 -4 57 32
58 81 1 38 -1 42 -25 45 -15 2 -31 -4 -39 -13z m50 -28 c0 -44 -27 -82 -46
-66 -26 21 0 99 32 99 9 0 14 -12 14 -33z"/>
<path d="M2957 403 c-4 -3 -7 -13 -7 -22 1 -14 2 -14 14 2 16 21 46 23 46 2 0
-8 -17 -23 -37 -32 -25 -12 -39 -26 -41 -41 -4 -26 24 -41 41 -22 9 10 9 11
-1 6 -21 -12 -28 25 -7 40 28 21 38 17 31 -11 -4 -14 -3 -31 1 -38 4 -7 12 14
19 48 7 33 10 63 8 67 -6 10 -58 10 -67 1z"/>
<path d="M3101 354 c-7 -30 -10 -58 -7 -61 7 -7 12 7 24 70 13 66 -2 59 -17
-9z"/>
<path d="M3220 396 c-7 -9 -15 -36 -17 -60 -5 -39 -3 -45 18 -51 34 -11 71 35
67 84 -3 30 -7 36 -29 39 -14 2 -31 -4 -39 -12z m55 -6 c9 -15 -13 -87 -29
-93 -33 -13 -40 46 -11 93 8 13 32 13 40 0z"/>
<path d="M3326 400 c-2 -3 -6 -22 -10 -43 -4 -21 -10 -45 -13 -53 -3 -8 0 -14
6 -14 6 0 11 6 11 13 0 35 22 85 43 95 21 10 21 11 -6 9 -16 -1 -30 -4 -31 -7z"/>
<path d="M3396 400 c-2 -3 -6 -22 -10 -43 -4 -21 -10 -45 -13 -53 -3 -8 -1
-14 5 -14 5 0 13 17 17 37 9 50 22 73 42 73 13 0 14 -9 9 -57 -8 -70 8 -52 19
20 l7 48 -37 -3 c-20 -1 -38 -5 -39 -8z"/>
<path d="M3502 374 c-19 -75 -20 -84 -12 -84 10 0 34 109 27 117 -3 3 -10 -12
-15 -33z"/>
<path d="M3557 403 c-15 -14 -6 -22 13 -11 16 10 22 10 32 0 11 -11 9 -16 -6
-28 -11 -8 -14 -14 -7 -14 9 0 11 -9 6 -29 -3 -16 -2 -32 3 -35 5 -3 12 15 16
41 10 78 9 83 -22 83 -16 0 -32 -3 -35 -7z"/>
<path d="M3886 381 c-20 -39 -21 -90 -1 -97 16 -7 71 24 61 33 -3 4 -14 -1
-25 -11 -15 -14 -20 -14 -30 -3 -20 24 -2 47 36 47 32 0 34 2 31 28 -2 21 -9
28 -30 30 -21 3 -30 -3 -42 -27z m54 -1 c0 -15 -7 -20 -25 -20 -23 0 -24 2
-15 20 6 11 17 20 25 20 8 0 15 -9 15 -20z"/>
<path d="M3986 371 c-3 -20 -9 -46 -12 -58 -4 -13 -2 -23 4 -23 5 0 13 20 16
45 6 35 13 48 34 59 l27 15 -31 -1 c-29 -1 -33 -5 -38 -37z"/>
<path d="M4166 381 c-23 -44 -21 -88 5 -96 19 -6 66 22 55 33 -3 2 -12 -3 -22
-12 -20 -21 -44 -5 -37 24 4 15 14 20 40 20 32 0 34 2 31 28 -2 21 -9 28 -30
30 -21 3 -30 -3 -42 -27z m54 -1 c0 -15 -7 -20 -25 -20 -23 0 -24 2 -15 20 6
11 17 20 25 20 8 0 15 -9 15 -20z"/>
<path d="M4325 387 c-40 -62 -22 -123 30 -99 14 7 25 17 25 23 0 7 -8 4 -20
-6 -23 -21 -44 -9 -38 21 2 13 13 20 36 22 28 3 32 7 32 33 0 24 -4 29 -25 29
-15 0 -31 -9 -40 -23z m53 -10 c3 -12 -3 -17 -22 -17 -28 0 -29 1 -20 25 8 20
38 15 42 -8z"/>
<path d="M4425 341 c6 -64 5 -70 -16 -85 -13 -9 -19 -16 -13 -16 22 0 45 28
74 94 17 38 28 71 25 74 -2 3 -15 -17 -27 -44 l-23 -49 -3 48 c-2 26 -8 47
-14 47 -7 0 -8 -23 -3 -69z"/>
<path d="M3542 338 c-17 -17 -15 -48 4 -55 8 -3 21 0 27 6 9 10 9 12 -2 9 -19
-4 -27 32 -9 43 7 5 8 9 3 9 -6 0 -16 -5 -23 -12z"/>
<path d="M3640 295 c0 -8 5 -15 10 -15 6 0 10 7 10 15 0 8 -4 15 -10 15 -5 0
-10 -7 -10 -15z"/>
</g>
</svg>
